<svg xmlns="http://www.w3.org/2000/svg" width="1200" height="360" viewBox="0 0 1200 360" role="img" aria-labelledby="title desc">
  <title id="title">Profile surface template</title>
  <desc id="desc">A warm editorial header with soft rounded cards and editable placeholder text.</desc>
  <rect width="1200" height="360" fill="#f5f3ee"/>
  <rect x="52" y="52" width="1096" height="256" rx="42" fill="#fbfaf7" stroke="#ddd8cf"/>
  <path d="M102 237V123c0-17 14-31 31-31h114" fill="none" stroke="#17181a" stroke-width="10" stroke-linecap="round"/>
  <path d="M102 238c39-4 60-37 78-37 19 0 38 28 67 28" fill="none" stroke="#5b35d5" stroke-width="10" stroke-linecap="round"/>
  <text x="315" y="153" fill="#17181a" font-family="Georgia, 'Times New Roman', serif" font-size="54">{NAME}</text>
  <text x="318" y="202" fill="#5f615f" font-family="Arial, Helvetica, sans-serif" font-size="24">{ONE_LINE_POSITION}</text>
  <rect x="883" y="91" width="205" height="54" rx="22" fill="#f1eee8" stroke="#ddd8cf"/>
  <rect x="883" y="157" width="205" height="54" rx="22" fill="#f1eee8" stroke="#ddd8cf"/>
  <rect x="883" y="223" width="136" height="28" rx="14" fill="#5b35d5" opacity=".92"/>
  <circle cx="912" cy="118" r="8" fill="#5b35d5"/>
  <circle cx="912" cy="184" r="8" fill="#17181a"/>
  <path d="M935 118h116M935 184h86" stroke="#a9a59e" stroke-width="6" stroke-linecap="round"/>
</svg>
